<?xml version="1.0" standalone="no"?>
<!DOCTYPE svg PUBLIC "-//W3C//DTD SVG 20010904//EN"
 "http://www.w3.org/TR/2001/REC-SVG-20010904/DTD/svg10.dtd">
<svg version="1.0" xmlns="http://www.w3.org/2000/svg"
 width="90.000000pt" height="90.000000pt" viewBox="0 0 90.000000 90.000000"
 preserveAspectRatio="xMidYMid meet">

<g transform="translate(0.000000,90.000000) scale(0.100000,-0.100000)"
fill="#fff" stroke="none">
<path d="M346 710 c-100 -39 -176 -149 -176 -255 0 -144 131 -275 275 -275
107 0 217 76 255 178 84 220 -135 437 -354 352z m122 -113 c2 -9 16 -30 32
-46 39 -38 47 -74 25 -107 -9 -15 -26 -29 -36 -31 -10 -3 -19 -12 -19 -19 0
-18 38 -18 59 -1 20 17 91 38 91 27 0 -5 -9 -19 -20 -32 -11 -12 -28 -34 -38
-47 -15 -19 -31 -25 -75 -29 -116 -9 -197 23 -197 78 0 17 6 20 39 20 25 0 41
-5 45 -15 7 -20 66 -20 66 0 0 8 -9 15 -20 15 -19 0 -19 1 -3 35 17 35 14 70
-12 137 -5 13 -2 15 14 11 15 -4 21 -1 21 12 0 21 24 14 28 -8z m-74 -63 c10
-26 7 -69 -6 -82 -12 -12 -78 -17 -78 -5 0 12 62 103 70 103 4 0 11 -7 14 -16z"/>
</g>
</svg>
